<?xml version="1.0" encoding="UTF-8"?>
<svg version="1.1" xmlns="http://www.w3.org/2000/svg" width="500" height="500">
<path d="M0 0 C4.63286642 2.77292391 9.30168669 5.4843002 13.96728516 8.20166016 C14.97807129 8.79124512 15.98885742 9.38083008 17.03027344 9.98828125 C25.60988048 14.9889128 34.21161237 19.95076938 42.81665039 24.9074707 C51.05834578 29.65764067 59.27788776 34.44477949 67.49072266 39.24462891 C74.82262239 43.52638137 82.17245753 47.77626954 89.52978516 52.01416016 C98.86699916 57.39248414 108.18371293 62.8045115 117.48632812 68.24243164 C123.76095434 71.90735332 130.04882453 75.54835333 136.34716797 79.17236328 C139.61611635 81.05439733 142.88183199 82.94193563 146.14697266 84.83056641 C150.37101259 87.27365629 154.60650316 89.69506603 158.85009766 92.10400391 C160.82695441 93.24021085 162.80353034 94.37690656 164.77978516 95.51416016 C165.67842285 96.01761963 166.57706055 96.5210791 167.50292969 97.03979492 C174.62318249 101.16877578 179.81476035 105.56786952 182.52978516 113.51416016 C182.77029419 116.31733704 182.77029419 116.31733704 182.75683594 119.40600586 C182.75668488 120.56683182 182.75653381 121.72765778 182.75637817 122.92366028 C182.7460556 124.16653305 182.73573303 125.40940582 182.72509766 126.68994141 C182.72085281 128.61038521 182.72085281 128.61038521 182.71652222 130.56962585 C182.70891296 133.96119091 182.68928809 137.35258266 182.66711426 140.74407959 C182.64659721 144.20973365 182.63750801 147.6754159 182.62744141 151.14111328 C182.60540007 157.93220382 182.57193645 164.72316628 182.52978516 171.51416016 C178.87560447 170.68765112 176.11660801 169.28682999 172.85791016 167.40869141 C171.7311084 166.762146 170.60430664 166.11560059 169.44335938 165.44946289 C168.22208528 164.74200471 167.00089602 164.03440006 165.77978516 163.32666016 C164.51322428 162.59722151 163.24645726 161.86814068 161.97949219 161.1394043 C153.12370095 156.03955074 144.29294325 150.89622284 135.47216797 145.73608398 C128.17433412 141.46693573 120.85643699 137.23363814 113.52978516 133.01416016 C104.19110775 127.6350986 94.87338147 122.22156539 85.56884766 116.78369141 C78.23694792 112.50193894 70.88711278 108.25205077 63.52978516 104.01416016 C54.19627094 98.63796729 44.88338992 93.22784609 35.58422852 87.79248047 C27.00621152 82.78257381 18.4036164 77.81586848 9.7902832 72.86694336 C4.9570119 70.08624264 0.13490876 67.2930064 -4.64208984 64.41650391 C-5.41496338 63.95276367 -6.18783691 63.48902344 -6.98413086 63.01123047 C-8.37172389 62.17521463 -9.75546374 61.33274682 -11.1340332 60.48193359 C-17.9778585 56.36243722 -24.58158636 54.61866181 -32.47021484 55.51416016 C-40.4896499 57.74331533 -47.4538595 61.54208982 -54.53271484 65.82666016 C-56.6507453 67.08524563 -58.76925145 68.34303085 -60.88818359 69.60009766 C-61.97276855 70.24688477 -63.05735352 70.89367187 -64.17480469 71.56005859 C-69.53673591 74.73955908 -74.94112395 77.84454257 -80.34521484 80.95166016 C-82.5301908 82.2106357 -84.71508627 83.46975094 -86.89990234 84.72900391 C-87.9849707 85.35403809 -89.07003906 85.97907227 -90.18798828 86.62304688 C-95.61681423 89.75096162 -101.04343491 92.88269747 -106.47021484 96.01416016 C-114.0874005 100.40957198 -121.70581455 104.802831 -129.32666016 109.19189453 C-132.56159637 111.05727454 -135.79327177 112.92821706 -139.02490234 114.79931641 C-143.41028345 117.3357224 -147.81289642 119.8385256 -152.22802734 122.32275391 C-154.39211217 123.5531834 -156.55617548 124.78365072 -158.72021484 126.01416016 C-159.71424316 126.56531494 -160.70827148 127.11646973 -161.73242188 127.68432617 C-169.91736939 132.3672175 -175.46791834 137.34925503 -178.47021484 146.51416016 C-180.2209412 154.45078632 -179.34757409 161.5893596 -175.34521484 168.70166016 C-169.84383694 176.59913386 -160.65563455 180.88403609 -152.47021484 185.51416016 C-150.72533948 186.51098608 -148.98047076 187.50782401 -147.23612976 188.50558472 C-146.04892443 189.18438665 -144.86135158 189.86254619 -143.67341614 190.54006958 C-137.98050591 193.78731746 -132.31606396 197.0821652 -126.65771484 200.38916016 C-125.68817871 200.95513916 -124.71864258 201.52111816 -123.71972656 202.10424805 C-118.28759305 205.27719841 -112.86003384 208.45789573 -107.43505859 211.64306641 C-104.9884877 213.07933876 -102.54186172 214.51551724 -100.09521484 215.95166016 C-99.48433014 216.31031158 -98.87344543 216.66896301 -98.24404907 217.03848267 C-89.6342569 222.09191745 -81.00048058 227.1013633 -72.34521484 232.07666016 C-63.5125013 237.15476431 -54.72673053 242.30579796 -45.97021484 247.51416016 C-34.97220601 254.05559419 -23.90991444 260.47754613 -12.81787109 266.85791016 C-3.67005224 272.12123057 5.44503904 277.44003156 14.55126953 282.77490234 C17.66911496 284.59551963 20.79439291 286.40292769 23.92041016 288.20947266 C25.95700789 289.39412886 27.99347123 290.57901617 30.02978516 291.76416016 C30.9865918 292.31346191 31.94339844 292.86276367 32.92919922 293.42871094 C33.79770508 293.93644043 34.66621094 294.44416992 35.56103516 294.96728516 C36.32996094 295.41233398 37.09888672 295.85738281 37.89111328 296.31591797 C38.431875 296.71133789 38.97263672 297.10675781 39.52978516 297.51416016 C39.52978516 298.17416016 39.52978516 298.83416016 39.52978516 299.51416016 C38.81773926 299.92029541 38.10569336 300.32643066 37.37207031 300.74487305 C25.22458507 307.67533101 13.07878264 314.60841184 0.9675293 321.60205078 C-1.22466236 322.86737948 -3.41816705 324.13043633 -5.61303711 325.39111328 C-10.11567391 327.97984084 -14.60567777 330.57654242 -19.02880859 333.29931641 C-20.00454834 333.8900293 -20.00454834 333.8900293 -21 334.49267578 C-22.61937737 335.47734238 -24.22714142 336.48104504 -25.83349609 337.48681641 C-28.47021484 338.51416016 -28.47021484 338.51416016 -30.80615234 337.76269531 C-33.53779923 336.48248617 -36.12466835 335.08258929 -38.73193359 333.56494141 C-39.75496582 332.97189209 -40.77799805 332.37884277 -41.83203125 331.76782227 C-42.92950684 331.12723877 -44.02698242 330.48665527 -45.15771484 329.82666016 C-46.3181573 329.15256542 -47.47880558 328.47882491 -48.63964844 327.80541992 C-51.0515561 326.40595084 -53.46257071 325.00496044 -55.87304688 323.60302734 C-60.36415291 320.99281445 -64.86614017 318.40156353 -69.36791992 315.80981445 C-79.74543462 309.83483417 -90.1004721 303.82252255 -100.43823242 297.77905273 C-107.7025544 293.53563216 -114.98956287 289.33279096 -122.28271484 285.13916016 C-131.28488197 279.96134615 -140.23513162 274.70284472 -149.15771484 269.38916016 C-158.52903644 263.80962878 -167.96338493 258.36295403 -177.47314453 253.02319336 C-184.35005227 249.15929551 -191.16409729 245.202013 -197.95068359 241.18212891 C-202.46749184 238.5082855 -207.00617827 235.87257903 -211.54443359 233.23535156 C-238.30706758 217.67730742 -238.30706758 217.67730742 -240.47021484 215.51416016 C-240.58153333 212.51789796 -240.6276194 209.54447763 -240.63134766 206.54736328 C-240.63879501 205.13505432 -240.63879501 205.13505432 -240.64639282 203.69421387 C-240.66106456 200.56127198 -240.66782709 197.42838084 -240.67333984 194.29541016 C-240.67909011 192.1212158 -240.68484786 189.94702147 -240.69061279 187.77282715 C-240.70113902 183.20287845 -240.70697009 178.63294741 -240.71044922 174.06298828 C-240.71591714 168.22001284 -240.73990184 162.37727242 -240.76842117 156.53437042 C-240.78709611 152.03722466 -240.79225589 147.54013474 -240.7937851 143.04295349 C-240.79680455 140.89007797 -240.8048091 138.73720326 -240.81797028 136.58436584 C-240.83512118 133.561437 -240.83312764 130.53907172 -240.82666016 127.51611328 C-240.83587494 126.63366943 -240.84508972 125.75122559 -240.85458374 124.84204102 C-240.79996933 116.64849725 -239.08511291 109.26718018 -233.36279297 103.15869141 C-229.53127826 99.82934632 -225.14275478 97.46634669 -220.72021484 95.01416016 C-219.66962891 94.41667969 -218.61904297 93.81919922 -217.53662109 93.20361328 C-215.31228717 91.93877014 -213.08500138 90.67910576 -210.85498047 89.42431641 C-205.3696495 86.32872859 -199.92241155 83.16760836 -194.47021484 80.01416016 C-192.28017641 78.75232732 -190.09007237 77.49060832 -187.89990234 76.22900391 C-181.7848164 72.70121101 -175.68852298 69.14189364 -169.59521484 65.57666016 C-160.32463296 60.15447632 -151.01084682 54.81091945 -141.67974854 49.493927 C-133.58313641 44.87931987 -125.51232683 40.22331129 -117.47021484 35.51416016 C-108.24559974 30.11258072 -98.97761606 24.79054097 -89.68927002 19.49969482 C-81.37755569 14.76414667 -73.09863536 9.97579209 -64.84521484 5.13916016 C-57.66670455 0.93983835 -50.47413536 -3.23037335 -43.22021484 -7.29833984 C-42.48722168 -7.71325684 -41.75422852 -8.12817383 -40.99902344 -8.55566406 C-25.51075455 -17.17094427 -13.47107143 -8.11229184 0 0 Z " fill="#0880C2" transform="translate(268.47021484375,26.48583984375)"/>
<path d="M0 0 C2.57348633 1.26831055 2.57348633 1.26831055 5.33203125 2.88671875 C6.36537598 3.48814697 7.3987207 4.0895752 8.46337891 4.70922852 C9.56858887 5.36205811 10.67379883 6.0148877 11.8125 6.6875 C12.97796723 7.36906806 14.14382643 8.04996625 15.31005859 8.73022461 C17.70813958 10.13048155 20.10384 11.53468172 22.49755859 12.94238281 C25.72916218 14.84241265 28.96699621 16.73156337 32.20703125 18.6171875 C39.12930981 22.64614109 46.04411896 26.68783323 52.95898438 30.72949219 C65.38082591 37.98853142 77.82158421 45.21304171 90.28857422 52.39428711 C98.52969191 57.14414532 106.7486691 61.93095041 114.9609375 66.73046875 C122.29283764 71.01222146 129.64270807 75.26204691 137 79.5 C150.44193286 87.24404798 163.84165973 95.05934247 177.23291016 102.890625 C179.41335612 104.16565625 181.59401811 105.44031814 183.77490234 106.71459961 C185.81609373 107.90726424 187.85681836 109.10072822 189.89697266 110.29516602 C190.82687012 110.83842529 191.75676758 111.38168457 192.71484375 111.94140625 C193.52042725 112.41263916 194.32601074 112.88387207 195.15600586 113.36938477 C197.65266904 114.80085643 200.16127479 116.2057138 202.67774963 117.60191345 C203.89222448 118.27593657 203.89222448 118.27593657 205.13123417 118.96357632 C205.74792689 119.30559613 206.36461962 119.64761595 207 120 C207.115956 133.42165715 207.20474749 146.84319472 207.25906086 160.26525116 C207.28513135 166.4979779 207.32048403 172.73036141 207.37719727 178.96289062 C207.43160616 184.97997909 207.4614397 190.99673783 207.47438622 197.01405334 C207.48361002 199.30734954 207.50162209 201.60062811 207.52865028 203.89378357 C207.56505725 207.11122339 207.56994029 210.32730853 207.56762695 213.54492188 C207.58560333 214.48863647 207.60357971 215.43235107 207.62210083 216.40466309 C207.56562568 223.68511646 205.4182259 228.45588375 200.36685658 233.69329071 C195.71454447 238.0552439 190.12463369 240.96662579 184.5625 244 C182.49655309 245.14692078 180.43147532 246.29540828 178.3671875 247.4453125 C177.31112305 248.0321582 176.25505859 248.61900391 175.16699219 249.22363281 C170.13713843 252.0448798 165.16188066 254.95737801 160.1875 257.875 C151.80925652 262.78093841 143.41368071 267.65507681 135 272.5 C122.63966759 279.62067622 110.31532534 286.80183459 98 294 C84.59751054 301.83360028 71.17854545 309.6367266 57.72680664 317.38549805 C50.32560729 321.65139403 42.93917669 325.94185007 35.5625 330.25 C34.5825708 330.82194092 33.6026416 331.39388184 32.59301758 331.9831543 C28.78166473 334.20774766 24.97034185 336.43238173 21.16113281 338.66064453 C18.50475698 340.21385409 15.84636955 341.76356433 13.1875 343.3125 C12.00426147 344.00617676 12.00426147 344.00617676 10.79711914 344.71386719 C10.07387451 345.13442383 9.35062988 345.55498047 8.60546875 345.98828125 C7.97793701 346.35477783 7.35040527 346.72127441 6.70385742 347.09887695 C1.62920358 349.78272096 -3.43031004 349.86041201 -9 349 C-14.63520204 346.8803956 -19.78247823 343.98581042 -25 341 C-25.87317871 340.50129395 -26.74635742 340.00258789 -27.64599609 339.48876953 C-33.71923341 336.0009689 -39.7540426 332.44962953 -45.78515625 328.88964844 C-51.12973151 325.74816814 -56.5023477 322.65563694 -61.875 319.5625 C-64.05989701 318.30338746 -66.24479284 317.04427287 -68.4296875 315.78515625 C-69.51475586 315.16012207 -70.59982422 314.53508789 -71.71777344 313.89111328 C-77.14659942 310.76319852 -82.57319281 307.63141552 -88 304.5 C-90.16665583 303.24998121 -92.3333225 301.99998122 -94.5 300.75 C-116.16666667 288.25 -137.83333333 275.75 -159.5 263.25 C-160.57411133 262.63044434 -161.64822266 262.01088867 -162.75488281 261.37255859 C-164.90570781 260.13144907 -167.05610382 258.8895958 -169.20605469 257.64697266 C-174.25870706 254.72784993 -179.31523286 251.81622107 -184.38757324 248.93145752 C-186.18522259 247.90862368 -187.98148206 246.88339067 -189.77734375 245.85742188 C-192.03242448 244.57007264 -194.29009865 243.28725195 -196.55078125 242.00976562 C-210.58494807 233.98137057 -210.58494807 233.98137057 -213.3125 227.9375 C-213.77076172 226.96103516 -213.77076172 226.96103516 -214.23828125 225.96484375 C-215.73496888 222.10415721 -216.12320008 218.72963391 -216.11352539 214.58886719 C-216.11344986 213.50804871 -216.11337433 212.42723022 -216.11329651 211.31365967 C-216.10813522 210.15312073 -216.10297394 208.99258179 -216.09765625 207.796875 C-216.0962413 206.60394836 -216.09482635 205.41102173 -216.09336853 204.1819458 C-216.08777038 200.37127171 -216.07521819 196.56065634 -216.0625 192.75 C-216.05748476 190.16666752 -216.0529219 187.58333411 -216.04882812 185 C-216.03780155 178.66664663 -216.02106524 172.33332751 -216 166 C-211.56743282 166 -210.1917906 166.75801146 -206.43359375 168.9375 C-204.76683594 169.8965625 -204.76683594 169.8965625 -203.06640625 170.875 C-201.85663196 171.58309612 -200.64700043 172.2914362 -199.4375 173 C-198.17744083 173.72978427 -196.9170182 174.45894133 -195.65625 175.1875 C-186.11302517 180.7150271 -176.63123169 186.34740849 -167.15673828 191.99169922 C-158.50523954 197.1368858 -149.78794074 202.15603257 -141.03961182 207.13375854 C-131.97180644 212.29330814 -122.94148239 217.5128391 -113.93676758 222.78173828 C-106.64045426 227.04906223 -99.32471803 231.2816357 -92 235.5 C-83.65197494 240.30844757 -75.31756381 245.13905043 -67 250 C-55.29751408 256.83795364 -43.56295966 263.61951468 -31.81494141 270.37890625 C-29.32659014 271.81192033 -26.84053775 273.24880496 -24.35546875 274.6875 C-23.09121809 275.41679194 -21.8269028 276.14597187 -20.5625 276.875 C-19.53253906 277.47054688 -18.50257813 278.06609375 -17.44140625 278.6796875 C-13.32139 280.90779229 -10.00987476 281.21657122 -5.375 281.3125 C-4.20710937 281.34988281 -3.03921875 281.38726562 -1.8359375 281.42578125 C5.80835545 280.5772803 12.44766284 276.35577433 19.0625 272.625 C19.82578613 272.19783691 20.58907227 271.77067383 21.37548828 271.33056641 C28.76997416 267.17107594 36.09079848 262.88563237 43.41040039 258.59619141 C51.24311031 254.00996192 59.11332165 249.49242541 67 245 C76.66132836 239.49549287 86.28822378 233.93592166 95.88012695 228.31103516 C101.41310025 225.07255994 106.96590985 221.87265875 112.54296875 218.7109375 C113.49890427 218.16823212 113.49890427 218.16823212 114.47415161 217.61456299 C117.58841836 215.84688993 120.70507727 214.08371419 123.82617188 212.328125 C124.94958984 211.69132813 126.07300781 211.05453125 127.23046875 210.3984375 C128.22457764 209.83817871 129.21868652 209.27791992 130.24291992 208.70068359 C133.07927249 207.03166186 133.07927249 207.03166186 135.7355957 204.78759766 C138 203 138 203 140 203 C140.28617187 202.41992188 140.57234375 201.83984375 140.8671875 201.2421875 C141.56805523 199.85495274 142.29737563 198.48122062 143.0703125 197.1328125 C147.02177509 189.61039853 147.55627865 181.27843819 145.15234375 173.125 C140.65177265 163.11695036 131.83103676 157.988436 122.5 152.9375 C120.44575346 151.80103433 118.39239541 150.66296142 116.33984375 149.5234375 C115.29038574 148.94303711 114.24092773 148.36263672 113.15966797 147.76464844 C108.08748691 144.93187725 103.07439736 142.00023911 98.0625 139.0625 C97.06992187 138.48169678 96.07734375 137.90089355 95.0546875 137.30249023 C93.04153949 136.12419314 91.02868133 134.94540069 89.01611328 133.76611328 C84.01461371 130.83743853 79.00701587 127.91923011 74 125 C71.99997048 123.83338394 69.99997049 122.66671726 68 121.5 C67.01 120.9225 66.02 120.345 65 119.75 C56 114.5 56 114.5 53.00048828 112.75024414 C50.99890789 111.58268272 48.99728023 110.41520236 46.99560547 109.24780273 C42.01939608 106.34548584 37.04399545 103.44180084 32.0703125 100.53515625 C21.58508088 94.40965067 11.08510792 88.31110764 0.5625 82.25 C-7.17713986 77.7916143 -14.90396925 73.31427586 -22.59594727 68.77416992 C-27.64372415 65.79520423 -32.70079315 62.83248879 -37.76318359 59.87841797 C-39.82420978 58.67569454 -41.88444271 57.47161063 -43.94384766 56.26611328 C-48.86023961 53.39250857 -53.78812095 50.54618371 -58.7578125 47.765625 C-59.64484863 47.26538818 -60.53188477 46.76515137 -61.44580078 46.24975586 C-63.11336035 45.31141489 -64.78604089 44.38210095 -66.46435547 43.46313477 C-68.35935307 42.39243823 -70.1886653 41.20684447 -72 40 C-72 39.01 -72 38.02 -72 37 C-71.45923828 36.7097998 -70.91847656 36.41959961 -70.36132812 36.12060547 C-59.45119604 30.2517226 -48.62570229 24.26507706 -37.9375 18 C-36.9477417 17.42161377 -35.9579834 16.84322754 -34.93823242 16.24731445 C-29.94243055 13.32416519 -24.96043123 10.37989592 -19.9921875 7.41015625 C-18.0991768 6.29390026 -16.20595678 5.17799916 -14.3125 4.0625 C-13.4455249 3.53591797 -12.5785498 3.00933594 -11.68530273 2.46679688 C-10.87778564 1.99435547 -10.07026855 1.52191406 -9.23828125 1.03515625 C-8.53743408 0.6162915 -7.83658691 0.19742676 -7.11450195 -0.23413086 C-4.29994882 -1.25355739 -2.842156 -0.89371217 0 0 Z " fill="#155099" transform="translate(244,142)"/>
<path d="M0 0 C0 3.39823327 -0.82785059 5.82830159 -2 9 C-2.33 9.33 -2.66 9.66 -3 10 C-3.10058028 12.84913408 -3.13615328 15.67406085 -3.12939453 18.52368164 C-3.13114685 19.41805939 -3.13289917 20.31243713 -3.13470459 21.23391724 C-3.13912779 24.20934964 -3.13618175 27.18472318 -3.1328125 30.16015625 C-3.13348582 32.2246451 -3.13445608 34.28913386 -3.13571167 36.35362244 C-3.13718961 40.69238028 -3.13503254 45.03111759 -3.13037109 49.36987305 C-3.12469864 54.91915827 -3.12793637 60.46839486 -3.13394356 66.01767826 C-3.13756787 70.28745384 -3.13640156 74.55721801 -3.13381577 78.82699394 C-3.13315037 80.87183068 -3.13396134 82.91666847 -3.13629532 84.96150398 C-3.13884974 87.83121576 -3.13494097 90.70085055 -3.12939453 93.57055664 C-3.13141876 94.40984207 -3.13344299 95.2491275 -3.13552856 96.11384583 C-3.47542014 105.06283951 -3.47542014 105.06283951 -0.4375 113 C0.036875 113.33 0.51125 113.66 1 114 C-2 114 -2 114 -4.15614319 113.07461548 C-7.1367642 109.72096977 -6.54874058 106.14275977 -6.50170898 101.80615234 C-6.50981346 100.3934053 -6.50981346 100.3934053 -6.51808167 98.95211792 C-6.53061611 95.82974065 -6.51403887 92.7082775 -6.49609375 89.5859375 C-6.49624871 87.41460115 -6.49773711 85.24326452 -6.50050354 83.07192993 C-6.50188991 78.51381244 -6.4892956 73.95600866 -6.46655273 69.39794922 C-6.43826889 63.57066572 -6.44087483 57.74390766 -6.45364285 51.91658592 C-6.46062049 47.42798424 -6.45278523 42.93950264 -6.44038582 38.45091629 C-6.43588442 36.30364061 -6.435523 34.15635197 -6.43945122 32.00907516 C-6.44238122 28.99585647 -6.4257674 25.98334402 -6.40405273 22.97021484 C-6.40855438 22.09091309 -6.41305603 21.21161133 -6.41769409 20.30566406 C-6.3308463 13.00488594 -5.08984155 5.57458836 0 0 Z " fill="#BBE0F3" transform="translate(34,131)"/>
<path d="M0 0 C5.53636532 2.21454613 10.76524219 5.14467756 16 8 C16 42.32 16 76.64 16 112 C15.67 112 15.34 112 15 112 C15 78.01 15 44.02 15 9 C12.03 8.505 12.03 8.505 9 8 C6.2265625 6.58984375 6.2265625 6.58984375 3.625 4.9375 C2.75101562 4.38964844 1.87703125 3.84179688 0.9765625 3.27734375 C0.32429688 2.85582031 -0.32796875 2.43429687 -1 2 C-0.67 1.34 -0.34 0.68 0 0 Z " fill="#8F90B6" transform="translate(435,254)"/>
<path d="M0 0 C2.475 0.99 2.475 0.99 5 2 C4.01 2.66 3.02 3.32 2 4 C1.52306814 6.37822507 1.52306814 6.37822507 1.56762695 9.18408203 C1.53793571 10.80553635 1.53793571 10.80553635 1.50764465 12.45974731 C1.50125473 13.63060883 1.49486481 14.80147034 1.48828125 16.0078125 C1.47033005 17.20356903 1.45237885 18.39932556 1.43388367 19.63131714 C1.37956325 23.46250853 1.34581467 27.29357383 1.3125 31.125 C1.2793462 33.71746555 1.24485838 36.30991441 1.20898438 38.90234375 C1.12382432 45.26811609 1.0555668 51.63390432 1 58 C1.66 58.33 2.32 58.66 3 59 C2.34 59.99 1.68 60.98 1 62 C-1.34756345 55.51846861 -1.27352367 49.381325 -1.23046875 42.5390625 C-1.23001053 41.35275238 -1.22955231 40.16644226 -1.2290802 38.94418335 C-1.22606875 36.44796747 -1.21821576 33.95175328 -1.20581055 31.45556641 C-1.18746389 27.6174461 -1.18530163 23.77956599 -1.18554688 19.94140625 C-1.18063476 17.5156229 -1.17480779 15.08984119 -1.16796875 12.6640625 C-1.16685593 11.50999908 -1.1657431 10.35593567 -1.16459656 9.16690063 C-1.15821671 8.1084494 -1.15183685 7.04999817 -1.14526367 5.95947266 C-1.14145187 5.0235025 -1.13764008 4.08753235 -1.13371277 3.12319946 C-1 1 -1 1 0 0 Z " fill="#ABD2E8" transform="translate(29,307)"/>
<path d="M0 0 C-1.36644746 3.35655554 -2.50873001 4.60328228 -5.8125 6.0625 C-8.32088839 7.20971211 -10.52779663 8.33274135 -12.875 9.8125 C-13.57625 10.204375 -14.2775 10.59625 -15 11 C-15.66 10.67 -16.32 10.34 -17 10 C-17.3403125 10.9590625 -17.3403125 10.9590625 -17.6875 11.9375 C-19 14 -19 14 -21.5 14.8125 C-24 15 -24 15 -26 14 C-23.31294159 12.41591638 -20.62527171 10.832873 -17.9375 9.25 C-17.18533203 8.8065625 -16.43316406 8.363125 -15.65820312 7.90625 C-14.16108775 7.02483143 -12.66288574 6.1452558 -11.16357422 5.26757812 C-9.75610943 4.44298354 -8.35132457 3.61379172 -6.94970703 2.77929688 C-2.22318673 0 -2.22318673 0 0 0 Z " fill="#60BDE4" transform="translate(212,28)"/>
<path d="M0 0 C0.33 0 0.66 0 1 0 C1.02505615 0.77601563 1.0501123 1.55203125 1.07592773 2.3515625 C1.19267745 5.90117731 1.3150431 9.45057768 1.4375 13 C1.49647461 14.83111328 1.49647461 14.83111328 1.55664062 16.69921875 C1.21740039 27.38859361 1.21740039 27.38859361 4.5625 37 C5.036875 37.33 5.51125 37.66 6 38 C3 38 3 38 0 36 C-0.2667616 33.23371085 -0.34804189 30.69380369 -0.29296875 27.9296875 C-0.28872391 27.13345978 -0.28447906 26.33723206 -0.28010559 25.51687622 C-0.26328834 22.96924271 -0.22563179 20.42239511 -0.1875 17.875 C-0.17245705 16.14975099 -0.15876796 14.42448961 -0.14648438 12.69921875 C-0.11337501 8.46584218 -0.06157285 4.23305441 0 0 Z " fill="#48ADDC" transform="translate(29,207)"/>
<path d="M0 0 C3.73487777 0.4979837 5.81237635 0.87491756 9 3 C9 3.66 9 4.32 9 5 C6.3825449 6.98754375 3.46617139 8.54080822 0.625 10.1875 C-0.1690625 10.66380859 -0.963125 11.14011719 -1.78125 11.63085938 C-2.54179687 12.07623047 -3.30234375 12.52160156 -4.0859375 12.98046875 C-4.7876709 13.39192139 -5.4894043 13.80337402 -6.21240234 14.22729492 C-6.80230957 14.4822876 -7.3922168 14.73728027 -8 15 C-8.66 14.67 -9.32 14.34 -10 14 C-8.6875 12.5 -8.6875 12.5 -7 11 C-6.01 11 -5.02 11 -4 11 C-4 10.34 -4 9.68 -4 9 C-1.35261084 7.5393715 -0.10551666 7 3 7 C3 6.34 3 5.68 3 5 C3.66 5 4.32 5 5 5 C5 4.34 5 3.68 5 3 C2.525 2.01 2.525 2.01 0 1 C0 0.67 0 0.34 0 0 Z " fill="#658BB6" transform="translate(299,321)"/>
<path d="M0 0 C-2.78394043 1.70050657 -5.57827525 3.38311625 -8.375 5.0625 C-9.1690625 5.54783203 -9.963125 6.03316406 -10.78125 6.53320312 C-11.54179687 6.98759766 -12.30234375 7.44199219 -13.0859375 7.91015625 C-13.7876709 8.33433838 -14.4894043 8.75852051 -15.21240234 9.19555664 C-16.09726318 9.5937561 -16.09726318 9.5937561 -17 10 C-17.66 9.67 -18.32 9.34 -19 9 C-18.34 8.01 -17.68 7.02 -17 6 C-15.68 6 -14.36 6 -13 6 C-13 5.34 -13 4.68 -13 4 C-11.1875 2.3125 -11.1875 2.3125 -9 1 C-8.01 1.33 -7.02 1.66 -6 2 C-6 1.34 -6 0.68 -6 0 C-3.50907189 -1.24546405 -2.58919267 -0.7767578 0 0 Z " fill="#7475A8" transform="translate(270,478)"/>
<path d="M0 0 C0.99 0.33 1.98 0.66 3 1 C0.00946277 3.01445911 -2.99271591 5.01063742 -6 7 C-7.14275391 7.76570313 -7.14275391 7.76570313 -8.30859375 8.546875 C-9.01113281 9.00578125 -9.71367187 9.4646875 -10.4375 9.9375 C-11.07558594 10.35902344 -11.71367187 10.78054688 -12.37109375 11.21484375 C-13.17740234 11.60349609 -13.17740234 11.60349609 -14 12 C-14.66 11.67 -15.32 11.34 -16 11 C-14.6875 9.5 -14.6875 9.5 -13 8 C-12.01 8 -11.02 8 -10 8 C-10 7.34 -10 6.68 -10 6 C-7.35261084 4.5393715 -6.10551666 4 -3 4 C-3 3.34 -3 2.68 -3 2 C-2.01 1.34 -1.02 0.68 0 0 Z " fill="#7573A6" transform="translate(441,375)"/>
<path d="M0 0 C4.97209562 1.76429199 9.43438061 4.3939166 14 7 C14 7.66 14 8.32 14 9 C9.93774452 8.42176904 7.15237654 7.10882263 3.6875 4.9375 C2.80449219 4.38964844 1.92148437 3.84179688 1.01171875 3.27734375 C0.34785156 2.85582031 -0.31601562 2.43429687 -1 2 C-0.67 1.34 -0.34 0.68 0 0 Z " fill="#5F6FA4" transform="translate(435,254)"/>
<path d="M0 0 C5.50102837 0.41257713 9.76201664 2.54722675 14 6 C14 6.66 14 7.32 14 8 C9.02790438 6.23570801 4.56561939 3.6060834 0 1 C0 0.67 0 0.34 0 0 Z " fill="#5893C0" transform="translate(93,409)"/>
<path d="M0 0 C0.66 0.33 1.32 0.66 2 1 C-1.74427866 5.19813062 -4.8403063 7.07776117 -10 9 C-10.66 8.34 -11.32 7.68 -12 7 C-10.04754815 5.80285445 -8.08785003 4.61751926 -6.125 3.4375 C-5.03445312 2.77621094 -3.94390625 2.11492187 -2.8203125 1.43359375 C-1.88960937 0.96050781 -0.95890625 0.48742187 0 0 Z " fill="#60AED6" transform="translate(188,170)"/>
<path d="M0 0 C0.66 0 1.32 0 2 0 C2 0.66 2 1.32 2 2 C5.63 2.33 9.26 2.66 13 3 C13 2.34 13 1.68 13 1 C15.31 1 17.62 1 20 1 C16.82223457 4.17776543 13.92434829 4.15805241 9.625 4.1875 C8.22121094 4.20876953 8.22121094 4.20876953 6.7890625 4.23046875 C3.83881846 3.98668108 1.67635888 3.23112508 -1 2 C-0.67 1.34 -0.34 0.68 0 0 Z " fill="#8C91B9" transform="translate(231,487)"/>
<path d="M0 0 C-3.79817765 3.22269618 -7.57391854 5.74520378 -12 8 C-12.66 7.67 -13.32 7.34 -14 7 C-9.82547171 2.51624739 -6.36062509 -0.54519644 0 0 Z " fill="#7272A5" transform="translate(408,397)"/>
<path d="M0 0 C5.50102837 0.41257713 9.76201664 2.54722675 14 6 C14 6.66 14 7.32 14 8 C8.76481294 6.56032356 4.36973991 4.18303389 0 1 C0 0.67 0 0.34 0 0 Z " fill="#62A2CC" transform="translate(229,214)"/>
<path d="M0 0 C-1.23263349 3.69790046 -2.20052451 3.9354846 -5.5625 5.6875 C-6.80193359 6.34298828 -6.80193359 6.34298828 -8.06640625 7.01171875 C-8.70449219 7.33785156 -9.34257813 7.66398437 -10 8 C-10.33 7.01 -10.66 6.02 -11 5 C-9.54462432 4.16151196 -8.08559627 3.32936066 -6.625 2.5 C-5.81289062 2.0359375 -5.00078125 1.571875 -4.1640625 1.09375 C-2 0 -2 0 0 0 Z " fill="#4FB6E3" transform="translate(115,84)"/>
<path d="M0 0 C5.31027254 1.46032495 9.46330032 3.98320986 14 7 C12.68 7.33 11.36 7.66 10 8 C10 7.34 10 6.68 10 6 C9.36191406 5.81824219 8.72382813 5.63648438 8.06640625 5.44921875 C7.24011719 5.19785156 6.41382813 4.94648438 5.5625 4.6875 C4.73878906 4.44386719 3.91507812 4.20023438 3.06640625 3.94921875 C2.04353516 3.47935547 2.04353516 3.47935547 1 3 C0.67 2.01 0.34 1.02 0 0 Z " fill="#66A6CF" transform="translate(271,159)"/>
<path d="M0 0 C-2.61071299 2.06681445 -5.33837839 3.93109607 -8.125 5.75 C-8.80820312 6.19859375 -9.49140625 6.6471875 -10.1953125 7.109375 C-11.08863281 7.55023438 -11.08863281 7.55023438 -12 8 C-12.66 7.67 -13.32 7.34 -14 7 C-12.6875 5.5 -12.6875 5.5 -11 4 C-10.01 4 -9.02 4 -8 4 C-8 3.34 -8 2.68 -8 2 C-4.77208445 -0.1519437 -3.71599191 -0.20086443 0 0 Z " fill="#7C7CAB" transform="translate(284,469)"/>
<path d="M0 0 C0 3.43524404 -0.87727743 5.75657926 -2 9 C-2.69153122 11.32690909 -3.34544103 13.66228938 -4 16 C-4.33 16 -4.66 16 -5 16 C-5.61669998 9.09296024 -4.11242982 5.52240576 0 0 Z " fill="#71C4E8" transform="translate(34,131)"/>
<path d="M0 0 C-1.10789408 3.32368224 -1.48436217 3.61563093 -4.375 5.25 C-5.28378906 5.78367187 -5.28378906 5.78367187 -6.2109375 6.328125 C-8 7 -8 7 -11 6 C-3.8 0 -3.8 0 0 0 Z " fill="#5D72A6" transform="translate(294,398)"/>
<path d="M0 0 C0 2 0 2 -1.0625 3.5 C-3.79828544 5.61802743 -6.67445262 6.1842997 -10 7 C-10.33 6.34 -10.66 5.68 -11 5 C-9.54462432 4.16151196 -8.08559627 3.32936066 -6.625 2.5 C-5.81289062 2.0359375 -5.00078125 1.571875 -4.1640625 1.09375 C-2 0 -2 0 0 0 Z " fill="#56B8E3" transform="translate(70,110)"/>
<path d="M0 0 C0 0.66 0 1.32 0 2 C-3.93281242 5.0900669 -7.02125936 6.52583422 -12 7 C-9.20232475 3.70861735 -4.40323273 0 0 0 Z " fill="#6EC2E6" transform="translate(146,66)"/>
<path d="M0 0 C0 0.66 0 1.32 0 2 C-1.64453125 3.32421875 -1.64453125 3.32421875 -3.8125 4.6875 C-4.52019531 5.14511719 -5.22789062 5.60273438 -5.95703125 6.07421875 C-8 7 -8 7 -11 6 C-3.8 0 -3.8 0 0 0 Z " fill="#6372A6" transform="translate(320,383)"/>
<path d="M0 0 C-1.62170379 1.00533667 -3.24747237 2.00411907 -4.875 3 C-6.23238281 3.8353125 -6.23238281 3.8353125 -7.6171875 4.6875 C-10 6 -10 6 -12 6 C-12 5.34 -12 4.68 -12 4 C-11.01 4 -10.02 4 -9 4 C-9 3.34 -9 2.68 -9 2 C-5.59159007 -0.55630744 -4.03546861 -1.28479663 0 0 Z " fill="#7474A5" transform="translate(297,462)"/>
<path d="M0 0 C0.66 0 1.32 0 2 0 C1.62671065 5.35048061 0.0042343 7.50912907 -4 11 C-3.67 9.02 -3.34 7.04 -3 5 C-2.01 5 -1.02 5 0 5 C0 3.35 0 1.7 0 0 Z " fill="#63639B" transform="translate(448,364)"/>
<path d="M0 0 C1.07667519 3.32524173 0.98094365 4.058172 -0.1875 7.625 C-1.94781917 10.90283569 -2.5458087 11.9280096 -6 13 C-5.71382813 12.43796875 -5.42765625 11.8759375 -5.1328125 11.296875 C-3.98584069 8.97129077 -2.92160206 6.62229799 -1.875 4.25 C-1.52179688 3.45078125 -1.16859375 2.6515625 -0.8046875 1.828125 C-0.53914063 1.22484375 -0.27359375 0.6215625 0 0 Z " fill="#8F93BA" transform="translate(390,332)"/>
<path d="M0 0 C1.65 0 3.3 0 5 0 C1.81404865 2.63978826 -1.30970546 5.10498388 -5 7 C-5.66 6.67 -6.32 6.34 -7 6 C-5.6875 4.5 -5.6875 4.5 -4 3 C-3.01 3 -2.02 3 -1 3 C-0.67 2.01 -0.34 1.02 0 0 Z " fill="#6A90BB" transform="translate(270,344)"/>
<path d="M0 0 C0.66 0.33 1.32 0.66 2 1 C-2.30769231 5.92307692 -2.30769231 5.92307692 -5.8125 6.3125 C-6.8953125 6.1578125 -6.8953125 6.1578125 -8 6 C-5.63404067 3.38499232 -3.13950774 1.61000397 0 0 Z " fill="#66C0E5" transform="translate(154,60)"/>
<path d="M0 0 C0.66 0.33 1.32 0.66 2 1 C0.9375 2.9375 0.9375 2.9375 -1 5 C-4.6875 5.75 -4.6875 5.75 -8 6 C-5.63404067 3.38499232 -3.13950774 1.61000397 0 0 Z " fill="#5EBDE4" transform="translate(168,52)"/>
<path d="M0 0 C0 0.33 0 0.66 0 1 C-3.98060777 2.17076699 -7.91621717 3.25749403 -12 4 C-8.20200235 -0.17779742 -5.57396889 -1.54832469 0 0 Z " fill="#71B3D6" transform="translate(244,142)"/>
<path d="M0 0 C-0.6875 1.9375 -0.6875 1.9375 -2 4 C-4.625 4.75 -4.625 4.75 -7 5 C-6 2 -6 2 -4.0625 0.8125 C-2 0 -2 0 0 0 Z " fill="#4EB4E1" transform="translate(212,28)"/>
<path d="M0 0 C3.73487777 0.4979837 5.81237635 0.87491756 9 3 C9 3.66 9 4.32 9 5 C5.22454612 3.90931332 2.52956528 3.0916909 0 0 Z " fill="#617CAD" transform="translate(197,469)"/>
<path d="M0 0 C3.77545388 1.09068668 6.47043472 1.9083091 9 5 C5.26512223 4.5020163 3.18762365 4.12508244 0 2 C0 1.34 0 0.68 0 0 Z " fill="#649EC8" transform="translate(123,362)"/>
<path d="M0 0 C2.475 0.99 2.475 0.99 5 2 C4.01 2.66 3.02 3.32 2 4 C1.26393501 7.56769552 1.26393501 7.56769552 1 11 C0.67 11 0.34 11 0 11 C0 7.37 0 3.74 0 0 Z " fill="#69B1DA" transform="translate(29,307)"/>
<path d="M0 0 C3.37503669 1.1858237 5.64722731 2.27573689 8 5 C2.46153846 4.38461538 2.46153846 4.38461538 0.125 2.4375 C-0.24625 1.963125 -0.6175 1.48875 -1 1 C-0.67 0.67 -0.34 0.34 0 0 Z " fill="#61A2CB" transform="translate(190,256)"/>
<path d="M0 0 C3.73487777 0.4979837 5.81237635 0.87491756 9 3 C9 3.66 9 4.32 9 5 C5.22454612 3.90931332 2.52956528 3.0916909 0 0 Z " fill="#639BC6" transform="translate(265,235)"/>
<path d="M0 0 C-5.14285714 4.42857143 -5.14285714 4.42857143 -9 5 C-7.35234966 0.05704899 -4.76872479 -0.25776891 0 0 Z " fill="#7F7EAD" transform="translate(327,444)"/>
<path d="M0 0 C5.53846154 0.61538462 5.53846154 0.61538462 7.875 2.5625 C8.431875 3.2740625 8.431875 3.2740625 9 4 C8.01 4.495 8.01 4.495 7 5 C4.5249829 3.88568235 2.32116581 2.41849022 0 1 C0 0.67 0 0.34 0 0 Z " fill="#6EABD0" transform="translate(53,386)"/>
<path d="M0 0 C1.32 0.66 2.64 1.32 4 2 C-1.2734375 5.22265625 -1.2734375 5.22265625 -3 6 C-3.66 5.67 -4.32 5.34 -5 5 C-3.625 3.5 -3.625 3.5 -2 2 C-1.34 2 -0.68 2 0 2 C0 1.34 0 0.68 0 0 Z " fill="#68BDE3" transform="translate(121,142)"/>
<path d="M0 0 C0 1.32 0 2.64 0 4 C-2.31 4 -4.62 4 -7 4 C-3.17391304 0 -3.17391304 0 0 0 Z " fill="#5FBCE6" transform="translate(94,96)"/>
<path d="M0 0 C3.37503669 1.1858237 5.64722731 2.27573689 8 5 C6.68 5 5.36 5 4 5 C4 4.34 4 3.68 4 3 C2.35 2.67 0.7 2.34 -1 2 C-0.67 1.34 -0.34 0.68 0 0 Z " fill="#6C89B4" transform="translate(418,244)"/>
<path d="M0 0 C0.66 0.33 1.32 0.66 2 1 C0.25 3.0625 0.25 3.0625 -2 5 C-4.25 4.75 -4.25 4.75 -6 4 C-4.02 2.68 -2.04 1.36 0 0 Z " fill="#6CC1E6" transform="translate(50,120)"/>
</svg>
